# xmcd CD database file
#
# Track frame offsets:
#	150
#	18043
#	35862
#	54233
#	76929
#	102338
#	125421
#	141175
#	157250
#	181227
#	204762
#	237884
#
# Disc length: 4045 seconds
#
# Revision: 3
# Processed by: cddbd v1.4PL0 Copyright (c) Steve Scherf et al.
# Submitted via: CDex 1.50
#
DISCID=960fcb0c
DTITLE=Sebastian Gramss Underkarl - Second Brain
DYEAR=2002
DGENRE=Jazz
TTITLE0=Party Pigs
TTITLE1=Lost Dogs
TTITLE2=Where Are The Fish ?
TTITLE3=Duck Desaster
TTITLE4=Ich kann dich sehen
TTITLE5=Animal Farm
TTITLE6=Paradox Chicken
TTITLE7=Sad Little Pets
TTITLE8=My Dear
TTITLE9=Road Song
TTITLE10=Fango Fun
TTITLE11=2 QuickTime Videos: Party Pigs and The Fish
EXTD=YEAR: 2002
EXTT0=
EXTT1=
EXTT2=
EXTT3=
EXTT4=
EXTT5=
EXTT6=
EXTT7=
EXTT8=
EXTT9=
EXTT10=
EXTT11=
PLAYORDER=
